<?xml version="1.0" standalone="no"?>
<!DOCTYPE svg PUBLIC "-//W3C//DTD SVG 20010904//EN"
 "http://www.w3.org/TR/2001/REC-SVG-20010904/DTD/svg10.dtd">
<svg version="1.0" xmlns="http://www.w3.org/2000/svg"
 width="305.000000pt" height="305.000000pt" viewBox="0 0 305.000000 305.000000"
 preserveAspectRatio="xMidYMid meet">
<metadata>
Created by potrace 1.11, written by Peter Selinger 2001-2013
</metadata>
<g transform="translate(0.000000,305.000000) scale(0.100000,-0.100000)"
fill="#000000" stroke="none">
<path d="M1575 2802 c-2 -2 -23 -5 -47 -7 -24 -2 -61 -6 -83 -10 -22 -4 -44
-8 -50 -9 -5 -1 -16 -5 -22 -9 -7 -5 -13 -6 -13 -2 0 3 -16 -1 -35 -9 -19 -8
-35 -13 -35 -10 0 3 -10 -1 -22 -8 -13 -7 -27 -13 -33 -14 -5 0 -29 -10 -52
-22 -23 -12 -48 -22 -55 -22 -7 0 -19 -9 -26 -21 -8 -12 -19 -18 -28 -15 -8 3
-14 1 -14 -5 0 -5 -12 -15 -27 -22 -16 -6 -33 -19 -40 -27 -7 -8 -13 -12 -13
-8 0 4 -26 -17 -57 -47 -32 -29 -61 -51 -65 -49 -4 3 -8 -2 -8 -10 0 -9 -11
-22 -23 -31 -13 -8 -39 -38 -57 -66 -18 -28 -39 -53 -46 -56 -8 -3 -14 -14
-14 -24 0 -10 -5 -19 -11 -19 -5 0 -8 -4 -5 -9 3 -5 -1 -14 -9 -21 -8 -7 -15
-17 -15 -23 0 -5 -11 -25 -25 -43 -14 -18 -26 -41 -28 -51 -1 -10 -15 -44 -30
-75 -15 -32 -26 -61 -25 -65 1 -4 -5 -20 -15 -34 -10 -15 -22 -55 -28 -90 -5
-35 -12 -75 -16 -89 -8 -39 -10 -394 -2 -405 5 -6 10 -25 13 -41 5 -24 36
-135 60 -209 6 -20 26 -65 46 -107 11 -23 20 -50 20 -59 0 -10 3 -19 8 -21 4
-2 33 -41 64 -88 32 -47 74 -105 95 -130 64 -75 211 -210 230 -210 5 0 15 -9
23 -19 7 -11 17 -18 22 -15 4 3 8 1 8 -3 0 -5 17 -17 38 -28 20 -11 40 -25 45
-32 4 -7 14 -10 22 -7 8 4 15 1 15 -4 0 -11 38 -28 53 -24 4 1 7 -2 7 -8 0 -5
9 -10 20 -10 11 0 20 -4 20 -8 0 -4 8 -8 18 -9 9 -1 31 -7 47 -13 17 -6 30
-10 31 -8 0 2 8 -3 17 -11 10 -7 17 -11 17 -7 0 3 17 0 38 -8 33 -13 71 -24
112 -32 44 -10 120 -13 120 -6 0 5 -25 35 -55 68 -34 36 -53 64 -50 74 4 8 3
11 -1 7 -8 -7 -33 22 -34 38 0 7 35 11 93 12 114 0 265 19 315 38 20 8 46 15
57 17 11 2 26 9 33 16 8 7 18 9 24 6 6 -4 8 -2 5 3 -4 6 -19 14 -34 18 -16 3
-50 17 -76 31 -27 13 -53 24 -57 24 -5 0 -24 10 -42 23 -19 12 -59 38 -91 57
-63 39 -73 60 -27 60 17 0 30 5 30 10 0 6 14 10 30 10 17 0 30 5 30 10 0 6 11
10 25 10 14 0 25 5 25 10 0 6 9 10 20 10 11 0 20 5 20 10 0 6 9 10 20 10 11 0
20 4 20 9 0 5 9 11 20 14 11 3 20 1 20 -4 0 -5 5 -9 10 -9 6 0 10 9 10 20 0
13 12 25 36 35 19 8 33 19 29 25 -3 5 -2 10 4 10 15 0 124 111 170 174 23 31
45 56 50 56 4 0 20 29 36 65 15 36 33 69 40 73 7 4 15 24 19 46 6 33 5 38 -9
32 -9 -3 -23 -6 -31 -6 -8 0 -13 -5 -11 -12 1 -7 -8 -17 -20 -23 -13 -5 -23
-13 -23 -17 0 -5 -5 -8 -10 -8 -6 0 -20 -9 -32 -20 -12 -11 -28 -20 -35 -20
-7 0 -13 -4 -13 -8 0 -4 -16 -14 -35 -21 -19 -7 -35 -17 -35 -22 0 -5 -6 -9
-13 -9 -18 0 -67 -24 -67 -32 0 -5 -9 -8 -20 -8 -11 0 -20 -4 -20 -10 0 -5
-13 -10 -28 -10 -15 0 -32 -4 -37 -8 -9 -8 -95 -30 -140 -35 -11 -1 -25 -6
-32 -10 -7 -4 -68 -10 -137 -14 -104 -5 -126 -3 -126 8 0 12 34 60 79 115 5 6
27 47 48 92 22 45 43 79 47 75 3 -4 5 2 4 13 -1 10 2 38 6 60 l8 42 77 7 c42
4 91 13 110 21 18 8 43 14 55 14 12 0 27 5 32 10 6 6 25 12 42 13 18 1 32 4
32 8 0 3 23 17 50 32 28 15 50 25 50 22 0 -3 9 3 19 13 10 9 36 28 56 42 20
14 55 42 77 63 23 20 46 37 51 37 6 0 8 3 4 6 -3 3 4 17 16 30 12 12 28 30 35
39 7 8 22 15 33 15 16 0 19 5 14 19 -3 12 3 37 15 60 22 44 26 71 9 71 -5 0
-8 4 -4 9 3 5 0 15 -7 23 -7 7 -22 30 -33 51 -11 20 -23 37 -28 37 -4 0 -5 5
-2 10 3 6 2 10 -3 10 -5 0 -15 12 -23 27 -8 15 -24 37 -36 49 -13 13 -23 28
-23 34 0 5 -4 10 -9 10 -10 0 -91 79 -91 90 0 4 -11 12 -24 18 -25 11 -54 32
-88 65 -10 9 -22 17 -26 17 -26 0 -63 59 -77 120 -1 3 -6 16 -13 30 -6 14 -18
46 -28 72 -9 26 -22 52 -28 57 -17 13 -103 38 -181 52 -65 11 -222 19 -230 11z"/>
</g>
</svg>
